<svg xmlns="http://www.w3.org/2000/svg" viewBox="0 0 283.46 283.46"><defs><style>.cls-1{fill:#fff;}.cls-2{fill:none;}</style></defs><g id="圖層_2" data-name="圖層 2"><g id="圖層_1-2" data-name="圖層 1"><path class="cls-1" d="M231,107.57c-3.46-4.51-9.58-7.2-16.34-7.2h-24c-1-9-7.53-38.78-48.93-38.78S93.82,91.34,92.8,100.37h-24c-6.75,0-12.87,2.69-16.34,7.2a12.34,12.34,0,0,0-2.31,10.83L74.54,210c1.86,7,9.53,11.86,18.66,11.86h97.06c9.14,0,16.81-4.88,18.67-11.86l24.42-91.61A12.31,12.31,0,0,0,231,107.57ZM141.73,66.76c37,0,42.85,25.29,43.78,33.61H98C98.91,92.05,104.78,66.76,141.73,66.76Z"/><rect class="cls-2" width="283.46" height="283.46"/></g></g></svg>