<?xml version="1.0" encoding="utf-8"?>
<!-- Generator: Adobe Illustrator 24.1.3, SVG Export Plug-In . SVG Version: 6.00 Build 0)  -->
<svg version="1.1" id="圖層_1" xmlns="http://www.w3.org/2000/svg" xmlns:xlink="http://www.w3.org/1999/xlink" x="0px" y="0px"
	 viewBox="0 0 283.5 283.5" style="enable-background:new 0 0 283.5 283.5;" xml:space="preserve">
<style type="text/css">
	.st0{fill-rule:evenodd;clip-rule:evenodd;fill:#F09293;}
	.st1{fill:#F09293;}
	.st2{fill:none;}
</style>
<g>
	<g>
		<path class="st0" d="M169.8,267c-0.1,1.6-0.4,3.1-0.8,4.6c-0.3,0.8-0.5,0.8-1.6,0.8c-4.7,0-7.5-0.2-10.8-0.2c-1.4,0-3,0.1-4.8,0.1
			c-0.5,0-0.7-0.1-0.7-0.4c0-0.3,0.2-0.3,0.6-0.3h0.7c1.3-0.2,1.4-0.7,1.5-3.4c0-1.2,0-2.8,0-4.5v-5.3c0-4.9,0-5.3-0.1-6.3
			c0.1-0.7-0.4-1.3-1.1-1.5c-0.4-0.1-0.8-0.1-1.1-0.2c-0.3,0-0.6-0.1-0.6-0.3c0-0.3,0.2-0.3,0.9-0.3c1.9,0,3.4,0.1,4.7,0.1
			c0.2,0,4.2-0.1,5.3-0.1c0.6,0,0.7,0.1,0.7,0.3c0,0.2-0.3,0.4-0.5,0.4s-0.5,0-0.9,0.1c-0.9,0.2-1.1,0.7-1.2,1.8s-0.1,1.4-0.1,6.5
			v4.9c0,2.8-0.1,5,0.4,5.7c0.5,0.7,1,0.7,3.6,0.7c1.2,0.1,2.3,0,3.4-0.4c0.8-0.3,1.5-1.1,1.9-2.8c0-0.3,0.2-0.6,0.4-0.6
			C169.8,266.4,169.8,266.6,169.8,267z"/>
		<path class="st0" d="M148.5,246.4c0,0.3-0.2,0.9-0.3,1.8c-0.1,0.8-0.2,1.9-0.3,3.3c0,0.4-0.1,0.6-0.4,0.6c-0.3,0-0.3-0.2-0.3-0.5
			c0-0.4-0.1-0.7-0.1-1.1c-0.2-0.8-0.7-1.4-2.3-1.4c-1.3-0.1-4.5-0.2-5.6-0.2c-0.2,0-0.3,0.1-0.3,0.4v7.8c0,0.2,0,0.4,0.3,0.4
			c1,0,3.4,0,4.8,0c1.9,0,2.3-0.1,2.8-0.8c0.2-0.3,0.3-0.4,0.5-0.4c0.2,0,0.3,0.3,0.3,0.4c0,0.2-0.2,1.6-0.3,2.8
			c0,0.8-0.1,2.5-0.1,2.9s0,0.7-0.3,0.7c-0.3,0-0.3-0.2-0.3-0.6s-0.1-0.5-0.1-0.8c-0.1-0.9-0.6-1.6-2.3-1.7c-1-0.1-4-0.1-5-0.1
			c-0.2,0-0.2,0.1-0.2,0.4v2.4c-0.1,2.3,0,4.6,0.2,7c0.1,1,0.3,1.7,1.6,1.9l1.2,0.1c0.5,0,0.8,0.1,0.8,0.3c0,0.2-0.1,0.4-0.8,0.4
			c-1.9,0-2.2-0.1-5.8-0.1c-2.5,0-4.5,0.1-5.4,0.1c-0.5,0-0.7-0.1-0.7-0.3c0-0.2,0.1-0.3,0.6-0.4c0.3,0,0.6-0.1,0.9-0.1
			c0.9-0.1,1.1-1,1.2-2.4c0.2-1.8,0.2-3.4,0.2-6.7v-6.1c0-5.6,0-6-0.1-7.1c-0.1-1.1-0.4-1.8-1.3-2c-0.4-0.1-0.8-0.1-1.2-0.1
			c-0.4,0-0.7-0.1-0.7-0.3c0-0.3,0.3-0.3,0.8-0.3c2,0,3.7,0.1,5.3,0.1h10.2c0.6,0,1.2,0,1.8-0.2c0.2-0.1,0.4-0.1,0.7-0.1
			C148.4,246.2,148.5,246.3,148.5,246.4z"/>
		<path class="st0" d="M105.4,267.3c0,1.4-0.2,2.9-0.4,4.3c-0.3,0.8-0.5,0.8-1.6,0.8c-4.6,0-6.8-0.2-10.1-0.2
			c-1.4,0-2.9,0.1-4.7,0.1c-0.6,0-0.7-0.2-0.7-0.4c0-0.2,0.1-0.3,0.6-0.3c0.3,0,0.6,0,0.9-0.1c1-0.2,1.1-1.4,1.2-3.4
			c0-1.1,0-2.8,0-4.4v-5.3c0-4.9,0-5.6-0.1-6.5c0-0.7-0.4-1.3-1.1-1.4c-0.3,0-0.6,0-0.9-0.1c-0.3-0.1-0.5-0.2-0.5-0.4
			c0-0.2,0.2-0.3,0.7-0.3c1.9,0,3.3,0.1,4.6,0.1h9c0.6,0,1.2,0,1.8-0.2c0.2-0.1,0.3-0.1,0.5-0.1c0.2,0,0.2,0.1,0.2,0.3
			c-0.1,0.5-0.2,0.9-0.2,1.4c0,0.8,0,1.4-0.2,3.3c0,0.2-0.1,0.5-0.3,0.5c-0.2,0-0.3-0.1-0.3-0.4c0-0.3-0.1-0.7-0.2-1.1
			c-0.2-0.7-0.6-1.1-2-1.3c-1.1,0-3.7-0.1-4.6-0.1c-0.2,0-0.2,0.1-0.2,0.3v6.3c0,0.2,0,0.3,0.2,0.3c0.9,0,3.1,0,4.3,0
			c1.7,0,2.1-0.2,2.5-0.8c0.2-0.3,0.3-0.4,0.4-0.4s0.3,0.2,0.3,0.4s-0.2,1.7-0.3,2.8c0,0.7,0,2.2,0,2.6c0,0.3-0.1,0.5-0.3,0.5
			c-0.2,0-0.3-0.1-0.3-0.5c0-0.3,0-0.4,0-0.6c-0.2-0.9-0.5-1.5-2.2-1.6c-1-0.1-3.3-0.1-4.3-0.1c-0.2,0-0.2,0.1-0.2,0.3v2.2
			c0,1,0,2.4,0,3.6c0,2.1,0.4,2.6,3.9,2.6c1,0,1.9-0.1,2.9-0.3c0.9-0.3,1.2-1.1,1.5-2.4c0.1-0.4,0.2-0.5,0.4-0.5
			S105.4,266.9,105.4,267.3z"/>
		<path class="st0" d="M28.7,272.1c0-0.2,0.1-0.3,0.5-0.4c-0.3,0-0.6-0.1-0.8-0.1c-1.2-0.2-2-1-3.2-3.7c-2.3-5.3-8.2-18.5-9-20.4
			c-0.6-1.2-0.9-1.7-1.3-1.7c-0.3,0-0.8,0.5-1.4,2l-9.2,20.9c-0.7,1.7-1.4,2.8-2.6,3c-0.4,0.1-0.7,0.1-1.1,0.1
			c-0.4,0-0.7,0.1-0.7,0.4c0,0.3,0.2,0.3,0.7,0.3c1.7,0,4-0.1,4.4-0.1c1.8,0,3,0.1,4.6,0.1c0.4,0,0.7,0,0.7-0.3
			c0-0.3-0.1-0.4-0.6-0.4c-0.3,0-0.8,0-1.2-0.1c-0.7,0-1-0.4-1-1c0.1-0.8,0.3-1.5,0.6-2.2l1.1-2.8c0.1-0.2,0.1-0.3,0.3-0.3h7.9
			c0.1,0,0.3,0.1,0.3,0.2l2.3,5.5c0.1,0.3,0,0.6-0.4,0.6S19,271.8,19,272c0,0.2,0.2,0.3,0.8,0.3c2.2,0,6.1,0.1,9.5,0.1h0.1
			C28.9,272.4,28.7,272.3,28.7,272.1z M16.3,262.5h-5.9c-0.1,0-0.2,0-0.1-0.2l2.9-7.4c0.1-0.2,0.1-0.2,0.2,0l3,7.4
			C16.5,262.4,16.5,262.5,16.3,262.5z"/>
		<path class="st0" d="M55.9,249.7c0,0.2,0,0.4-0.5,0.4h-0.7c-1,0.2-1.4,0.6-1.5,2.5c-0.3,5.6-0.4,11.8-0.4,17.8c0,1.7-0.2,2-0.7,2
			c-0.5,0-1.6-0.8-4-2.8c-2.1-1.8-4.6-3.9-6.1-5.2c-1.5-1.3-4.3-3.8-7-6.2l0.3,9.7c0.1,2.1,0.2,2.9,1.1,3.2c0.5,0.1,1,0.2,1.6,0.2
			c0.5,0.1,0.7,0.2,0.7,0.4c0,0.2-0.2,0.3-0.8,0.3c-0.9,0-1.8,0-4-0.1c-0.9,0-3.4,0.1-4.4,0.1c0.6,0,0.8-0.1,0.8-0.3
			s-0.2-0.4-0.7-0.4h-0.1h0.8c1.3-0.2,1.5-0.8,1.7-3.6c0.2-6.2,0.2-13.1,0.3-17.1c0-1,0.1-1.5,0.6-1.5c0.2,0,0.3,0,1.2,0.7
			c1.5,1.2,6.2,5.3,10.1,8.6c3.4,3,5,4.4,5.9,5.2L49.8,253c0-1.7-0.3-2.4-1.6-2.7c-0.4,0-0.8-0.1-1.3-0.1c-0.5,0-0.6-0.2-0.6-0.3
			c0-0.1,0.3-0.3,0.6-0.3c1.1,0,3.3,0.1,4.7,0.1c0.8,0,2.4-0.1,3.6-0.1C55.7,249.5,55.9,249.6,55.9,249.7z"/>
		<path class="st0" d="M84.9,249.7c0,0.2-0.1,0.4-0.5,0.4h-0.7c-1,0.2-1.4,0.6-1.5,2.5c-0.3,5.6-0.4,11.8-0.4,17.8
			c0,1.7-0.2,2-0.7,2s-1.6-0.8-4-2.8c-2.2-1.8-4.6-3.9-6.1-5.2c-1.5-1.3-4.3-3.8-7-6.2l0.3,9.7c0,2.1,0.1,2.9,1.1,3.2
			c0.5,0.1,1,0.2,1.6,0.2c0.5,0.1,0.7,0.2,0.7,0.4c0,0.2-0.2,0.3-0.8,0.3c-0.9,0-1.8,0-4-0.1c-0.9,0-3.4,0.1-4.4,0.1
			c-0.5,0-0.7-0.1-0.7-0.3s0.1-0.3,0.5-0.4h0.9c1.3-0.2,1.5-0.8,1.7-3.6c0.2-6.2,0.2-13.1,0.3-17.1c0-1,0.1-1.5,0.6-1.5
			c0.2,0,0.3,0,1.2,0.7c1.5,1.2,6.3,5.3,10.1,8.6c3.4,3,5,4.4,5.9,5.2L78.8,253c0-1.7-0.3-2.4-1.6-2.7c-0.4,0-0.8-0.1-1.3-0.1
			c-0.5,0-0.5-0.2-0.5-0.3c0-0.1,0.3-0.3,0.6-0.3c1.1,0,3.3,0.1,4.7,0.1c0.8,0,2.4-0.1,3.6-0.1C84.8,249.5,84.9,249.6,84.9,249.7z"
			/>
		<path class="st0" d="M253.9,267.3c0,1.5-0.2,2.9-0.5,4.3c-0.2,0.8-0.5,0.8-1.6,0.8c-4.6,0-6.8-0.2-10.1-0.2
			c-1.5,0-2.9,0.1-4.7,0.1c-0.6,0-0.7-0.2-0.7-0.4c0-0.2,0.1-0.3,0.6-0.3c0.3,0,0.6,0,0.9-0.1c1-0.2,1.1-1.4,1.2-3.4
			c0-1.1,0-2.8,0-4.4v-5.3c0-4.9,0-5.6-0.1-6.5c0-0.7-0.5-1.3-1.1-1.4c-0.3,0-0.6,0-0.9-0.1c-0.3-0.1-0.5-0.2-0.5-0.4
			c0-0.2,0.2-0.3,0.7-0.3c1.9,0,3.3,0.1,4.6,0.1h9c0.6,0,1.2,0,1.8-0.2c0.2-0.1,0.3-0.1,0.5-0.1c0.2,0,0.2,0.1,0.2,0.3
			c-0.1,0.5-0.2,0.9-0.3,1.4c0,0.8-0.1,1.4-0.2,3.3c0,0.2-0.1,0.5-0.3,0.5c-0.2,0-0.3-0.1-0.3-0.4c0-0.3-0.1-0.7-0.2-1.1
			c-0.2-0.7-0.6-1.1-2-1.3c-1.1,0-3.6-0.1-4.6-0.1c-0.2,0-0.2,0.1-0.2,0.3v6.3c0,0.2,0,0.3,0.2,0.3c0.9,0,3.1,0,4.3,0
			c1.7,0,2.1-0.2,2.5-0.8c0.2-0.3,0.3-0.4,0.4-0.4c0.1,0,0.3,0.2,0.3,0.4s-0.2,1.7-0.3,2.8c0,0.7-0.1,2.2-0.1,2.6
			c0,0.3-0.1,0.5-0.3,0.5c-0.2,0-0.3-0.1-0.4-0.5c0-0.3,0-0.4,0-0.6c-0.2-0.9-0.5-1.5-2.2-1.6c-1-0.1-3.3-0.1-4.3-0.1
			c-0.2,0-0.2,0.1-0.2,0.3v2.2c0,1,0,2.4,0,3.6c0,2.1,0.4,2.6,3.9,2.6c1,0,1.9-0.1,2.9-0.3c0.9-0.3,1.2-1.1,1.5-2.4
			c0.1-0.4,0.2-0.5,0.4-0.5C253.9,266.7,253.9,266.9,253.9,267.3z"/>
		<path class="st0" d="M236.1,249.7c0,0.2-0.1,0.3-0.5,0.3c-0.4,0-0.5,0-1,0.1c-0.9,0.2-1.5,0.9-2.3,3.2c-1.3,3.5-4.2,11.1-6.6,17.1
			c-0.4,1-0.8,2-1.3,2s-0.7-0.5-1.2-1.5l-6.1-12.3c-1.4,3.4-3.9,8.7-5.4,12c-0.5,1.1-1,1.8-1.5,1.8s-0.7-0.5-1.3-2l-7-18
			c-0.5-1.3-0.9-2-1.7-2.2c-0.3-0.1-0.6-0.1-0.9-0.2c-0.4-0.1-0.5-0.2-0.5-0.4c0-0.2,0.2-0.3,0.7-0.3c1.9,0,4.2,0.1,4.7,0.1
			c0.9,0,3.3-0.1,4.9-0.1c0.4,0,0.7,0.1,0.7,0.3s-0.2,0.3-0.5,0.3l-0.8,0.1c-0.4,0-0.7,0.3-0.7,0.7c0.2,0.9,0.4,1.8,0.8,2.7
			c0.3,0.8,2.5,7.3,3.6,10.1l5.4-13.1c0.3-0.8,0.6-1,0.8-1c0.3,0,0.6,0.5,1.1,1.4l6.1,12.8c1-2.7,2.4-7,3.2-9.9
			c0.3-0.9,0.5-1.7,0.7-2.6c0-0.6-0.2-0.9-1.9-1.1c-0.3,0-0.6-0.1-0.6-0.3s0-0.4,0.6-0.4c2.1,0,3.7,0.1,4,0.1c0.3,0,2.6-0.1,3.7-0.1
			C235.8,249.4,236.1,249.5,236.1,249.7z"/>
		<path class="st0" d="M282.9,271.7c-0.3,0-0.5,0-0.8-0.1c-1-0.1-1.7-0.6-3.3-2.4c-2.1-2.5-4-5.1-5.7-7.9c2.5-1.6,4.1-3.5,4.1-5.9
			c0-2-1.1-3.8-2.9-4.7c-2.1-0.8-4.3-1.2-6.5-1c-1.6,0-4.8,0.1-5.3,0.1s-3.5-0.1-4.8-0.1c-0.5,0-0.6,0.2-0.6,0.3
			c0,0.2,0.1,0.3,0.5,0.3s0.5,0,1.1,0.1c0.6,0.1,1.2,0.5,1.3,1.8c0.1,1,0.1,1.4,0.1,6.1v5.3c0,2.9,0,4.9-0.2,6.2s-0.3,1.6-1,1.7
			c-0.4,0.1-0.8,0.1-1.1,0.1c-0.3,0-0.6,0.2-0.6,0.3c0,0.2,0.1,0.4,0.6,0.4c1,0,4.3-0.1,4.6-0.1c0.3,0,3.8,0.1,5.9,0.1
			c0.4,0,0.6-0.1,0.6-0.3c0-0.2,0-0.4-0.6-0.4c-0.5,0-0.9-0.1-1.4-0.2c-0.9-0.3-1.1-0.9-1.2-1.6c-0.1-0.8-0.1-2.3-0.1-4.6v-1.8
			c0-0.1,0.1-0.2,0.2-0.3c0,0,0,0,0.1,0h2.1c0.1,0,0.3,0,0.4,0.2c0.6,0.9,1.1,1.9,2.6,4.3c0.7,1.4,1.7,2.6,3,3.6
			c1.1,0.7,2.6,1.1,6.2,1.1h2.7c0.3,0,0.6,0,0.6-0.3C283.5,271.8,283.3,271.7,282.9,271.7z M270.4,260.7c-0.6,0.3-1.2,0.5-1.9,0.5
			c-0.9,0-1.7-0.1-2.5-0.4c-0.2-0.1-0.3-0.3-0.3-0.4v-8c0-0.1,0.1-0.3,0.2-0.3c0.4-0.1,0.8-0.1,1.1-0.1c1.6,0,4.5,1,4.5,5.3
			C271.7,258.4,271.3,259.7,270.4,260.7L270.4,260.7z"/>
		<path class="st0" d="M185.3,249c-9.1,0-13.3,5.6-13.3,11.9c0,5.3,4,11.6,13.2,11.6c8.1,0,13-5.3,13-12.3
			C198.1,254.3,193.2,249,185.3,249z M186,270.3c-5.1,0-7.3-5.5-7.3-11c0-7,3-8.3,5.7-8.3c5.6,0,7.2,6,7.2,10.6
			C191.5,269.6,187.9,270.3,186,270.3z"/>
	</g>
	<path class="st1" d="M210.8,225c-1.8,0.1-3.4-1.3-3.5-3.1c-0.1-1.8,1.3-3.4,3.1-3.5c0.1,0,0.3,0,0.4,0c36.3,0,65.8-29.5,65.8-65.8
		c0-36.3-29.4-65.8-65.8-65.8c-15.6,0-42.6,36-66.4,67.8C117.2,190.8,91.6,225,72.6,225c-40,0.1-72.5-32.2-72.6-72.2
		c-0.1-38.9,30.5-70.9,69.4-72.5c1.8-40,35.6-70.9,75.5-69.2c37.5,1.7,67.5,31.7,69.2,69.2c40,1.7,71,35.4,69.3,75.4
		C281.8,194.5,249.7,225.1,210.8,225z M72.6,86.8c-36.3,0-65.8,29.5-65.8,65.8c0,36.3,29.4,65.7,65.8,65.8c15.6,0,42.6-36,66.4-67.8
		c25.6-34.1,49.8-66.4,68.4-70.1c-1.6-36.3-32.3-64.4-68.6-62.8c-35.2,1.6-62.9,30.6-62.9,65.8v3.3H72.6z"/>
	<circle class="st1" cx="141.7" cy="83.5" r="8.6"/>
	<circle class="st1" cx="89.9" cy="118.1" r="8.6"/>
	<circle class="st1" cx="55.6" cy="169.9" r="8.6"/>
	<path class="st1" d="M141.7,155.9c-1.8,0-3.3-1.5-3.3-3.3l0,0V83.5c-0.1-1.8,1.3-3.4,3.1-3.5c1.8-0.1,3.4,1.3,3.5,3.1
		c0,0.1,0,0.3,0,0.4v69.1C145.1,154.4,143.6,155.9,141.7,155.9z"/>
	<path class="st1" d="M126.4,176.2c-1.1,0-2.1-0.6-2.8-1.5l-36.5-54.8c-1-1.5-0.6-3.6,0.9-4.6s3.6-0.6,4.6,0.9l0,0l36.6,54.8
		c1,1.5,0.6,3.6-1,4.6C127.7,175.9,127.1,176.1,126.4,176.2L126.4,176.2z"/>
	<path class="st1" d="M107.2,199.8c-0.5,0-1-0.1-1.5-0.4l-51.6-26.6c-1.6-0.9-2.1-2.9-1.2-4.5c0.9-1.5,2.7-2.1,4.3-1.4l51.6,26.6
		c1.6,0.8,2.3,2.8,1.5,4.5C109.6,199.1,108.4,199.8,107.2,199.8L107.2,199.8z"/>
</g>
<rect y="0" class="st2" width="283.5" height="283.5"/>
</svg>
