<svg xmlns="http://www.w3.org/2000/svg" viewBox="0 0 283.46 283.46"><defs><style>.cls-1{fill:#fff;}.cls-2{fill:none;}</style></defs><g id="圖層_2" data-name="圖層 2"><g id="圖層_1-2" data-name="圖層 1"><line class="cls-1" x1="79.69" y1="95.2" x2="203.78" y2="95.2"/><path class="cls-1" d="M203.78,105.54H79.69a10.34,10.34,0,0,1,0-20.68H203.78a10.34,10.34,0,0,1,0,20.68Z"/><line class="cls-1" x1="203.78" y1="141.73" x2="79.69" y2="141.73"/><path class="cls-1" d="M203.78,152.07H79.69a10.34,10.34,0,1,1,0-20.68H203.78a10.34,10.34,0,0,1,0,20.68Z"/><line class="cls-1" x1="203.78" y1="188.26" x2="79.69" y2="188.26"/><path class="cls-1" d="M203.78,198.61H79.69a10.35,10.35,0,0,1,0-20.69H203.78a10.35,10.35,0,0,1,0,20.69Z"/><rect class="cls-2" width="283.46" height="283.46"/></g></g></svg>